<mxfile host="app.diagrams.net" modified="2024-05-28T12:23:01.433Z" agent="Mozilla/5.0 (Windows NT 10.0; Win64; x64) AppleWebKit/537.36 (KHTML, like Gecko) Chrome/125.0.0.0 Safari/537.36" etag="I31GfJWUkFjx7pvTXoss" version="24.3.1" type="device">
  <diagram name="Page-1" id="22R9AYJy_WEX-Ro-9IZD">
    <mxGraphModel dx="1050" dy="565" grid="1" gridSize="10" guides="1" tooltips="1" connect="1" arrows="1" fold="1" page="1" pageScale="1" pageWidth="850" pageHeight="1100" math="0" shadow="0">
      <root>
        <mxCell id="0" />
        <mxCell id="1" parent="0" />
        <mxCell id="1J1XUhBUW75m6BLBYexf-1" value="" style="endArrow=classic;html=1;rounded=0;" edge="1" parent="1" target="1J1XUhBUW75m6BLBYexf-2">
          <mxGeometry width="50" height="50" relative="1" as="geometry">
            <mxPoint x="210" y="270" as="sourcePoint" />
            <mxPoint x="350" y="270" as="targetPoint" />
          </mxGeometry>
        </mxCell>
        <mxCell id="1J1XUhBUW75m6BLBYexf-2" value="Neural Network" style="ellipse;whiteSpace=wrap;html=1;" vertex="1" parent="1">
          <mxGeometry x="290" y="230" width="120" height="80" as="geometry" />
        </mxCell>
        <mxCell id="1J1XUhBUW75m6BLBYexf-4" value="Property" style="text;html=1;align=center;verticalAlign=middle;resizable=0;points=[];autosize=1;strokeColor=none;fillColor=none;" vertex="1" parent="1">
          <mxGeometry x="210" y="230" width="70" height="30" as="geometry" />
        </mxCell>
        <mxCell id="1J1XUhBUW75m6BLBYexf-5" value="Parameters" style="text;html=1;align=center;verticalAlign=middle;resizable=0;points=[];autosize=1;strokeColor=none;fillColor=none;" vertex="1" parent="1">
          <mxGeometry x="410" y="230" width="90" height="30" as="geometry" />
        </mxCell>
        <mxCell id="1J1XUhBUW75m6BLBYexf-6" value="" style="endArrow=classic;html=1;rounded=0;" edge="1" parent="1">
          <mxGeometry width="50" height="50" relative="1" as="geometry">
            <mxPoint x="410" y="269.5" as="sourcePoint" />
            <mxPoint x="490" y="269.5" as="targetPoint" />
          </mxGeometry>
        </mxCell>
        <mxCell id="1J1XUhBUW75m6BLBYexf-8" value="" style="endArrow=classic;html=1;rounded=0;" edge="1" parent="1">
          <mxGeometry width="50" height="50" relative="1" as="geometry">
            <mxPoint x="410" y="279.5" as="sourcePoint" />
            <mxPoint x="490" y="279.5" as="targetPoint" />
          </mxGeometry>
        </mxCell>
        <mxCell id="1J1XUhBUW75m6BLBYexf-9" value="" style="endArrow=classic;html=1;rounded=0;exitX=1;exitY=0.744;exitDx=0;exitDy=0;exitPerimeter=0;" edge="1" parent="1" source="1J1XUhBUW75m6BLBYexf-2">
          <mxGeometry width="50" height="50" relative="1" as="geometry">
            <mxPoint x="430" y="289.5" as="sourcePoint" />
            <mxPoint x="490" y="290" as="targetPoint" />
          </mxGeometry>
        </mxCell>
        <mxCell id="1J1XUhBUW75m6BLBYexf-10" value="" style="endArrow=classic;html=1;rounded=0;" edge="1" parent="1">
          <mxGeometry width="50" height="50" relative="1" as="geometry">
            <mxPoint x="410" y="299.5" as="sourcePoint" />
            <mxPoint x="490" y="299.5" as="targetPoint" />
          </mxGeometry>
        </mxCell>
        <mxCell id="1J1XUhBUW75m6BLBYexf-11" value="" style="endArrow=classic;html=1;rounded=0;" edge="1" parent="1">
          <mxGeometry width="50" height="50" relative="1" as="geometry">
            <mxPoint x="210" y="480" as="sourcePoint" />
            <mxPoint x="290" y="480" as="targetPoint" />
          </mxGeometry>
        </mxCell>
        <mxCell id="1J1XUhBUW75m6BLBYexf-13" value="On/Off Ratio" style="text;html=1;align=center;verticalAlign=middle;resizable=0;points=[];autosize=1;strokeColor=none;fillColor=none;" vertex="1" parent="1">
          <mxGeometry x="200" y="440" width="90" height="30" as="geometry" />
        </mxCell>
        <mxCell id="1J1XUhBUW75m6BLBYexf-14" value="Material Thickness" style="text;html=1;align=center;verticalAlign=middle;resizable=0;points=[];autosize=1;strokeColor=none;fillColor=none;fontStyle=1;fontSize=13;" vertex="1" parent="1">
          <mxGeometry x="500" y="465" width="130" height="30" as="geometry" />
        </mxCell>
        <mxCell id="1J1XUhBUW75m6BLBYexf-15" value="" style="endArrow=classic;html=1;rounded=0;" edge="1" parent="1">
          <mxGeometry width="50" height="50" relative="1" as="geometry">
            <mxPoint x="410" y="479.5" as="sourcePoint" />
            <mxPoint x="490" y="479.5" as="targetPoint" />
          </mxGeometry>
        </mxCell>
        <mxCell id="1J1XUhBUW75m6BLBYexf-16" value="" style="endArrow=classic;html=1;rounded=0;" edge="1" parent="1">
          <mxGeometry width="50" height="50" relative="1" as="geometry">
            <mxPoint x="410" y="502.5" as="sourcePoint" />
            <mxPoint x="490" y="502.5" as="targetPoint" />
          </mxGeometry>
        </mxCell>
        <mxCell id="1J1XUhBUW75m6BLBYexf-17" value="" style="endArrow=classic;html=1;rounded=0;exitX=1;exitY=0.744;exitDx=0;exitDy=0;exitPerimeter=0;" edge="1" parent="1">
          <mxGeometry width="50" height="50" relative="1" as="geometry">
            <mxPoint x="410" y="524.5" as="sourcePoint" />
            <mxPoint x="490" y="524.98" as="targetPoint" />
          </mxGeometry>
        </mxCell>
        <mxCell id="1J1XUhBUW75m6BLBYexf-18" value="" style="endArrow=classic;html=1;rounded=0;" edge="1" parent="1">
          <mxGeometry width="50" height="50" relative="1" as="geometry">
            <mxPoint x="410" y="554.5" as="sourcePoint" />
            <mxPoint x="490" y="554.5" as="targetPoint" />
          </mxGeometry>
        </mxCell>
        <mxCell id="1J1XUhBUW75m6BLBYexf-19" value="no. of defects" style="text;html=1;align=center;verticalAlign=middle;resizable=0;points=[];autosize=1;strokeColor=none;fillColor=none;fontStyle=1;fontSize=13;" vertex="1" parent="1">
          <mxGeometry x="500" y="510" width="100" height="30" as="geometry" />
        </mxCell>
        <mxCell id="1J1XUhBUW75m6BLBYexf-20" value="Switching Voltage" style="text;html=1;align=center;verticalAlign=middle;resizable=0;points=[];autosize=1;strokeColor=none;fillColor=none;fontStyle=1;fontSize=13;" vertex="1" parent="1">
          <mxGeometry x="495" y="488" width="130" height="30" as="geometry" />
        </mxCell>
        <mxCell id="1J1XUhBUW75m6BLBYexf-22" value="" style="endArrow=classic;html=1;rounded=0;" edge="1" parent="1">
          <mxGeometry width="50" height="50" relative="1" as="geometry">
            <mxPoint x="410" y="580" as="sourcePoint" />
            <mxPoint x="490" y="580" as="targetPoint" />
          </mxGeometry>
        </mxCell>
        <mxCell id="1J1XUhBUW75m6BLBYexf-23" value="" style="endArrow=classic;html=1;rounded=0;" edge="1" parent="1">
          <mxGeometry width="50" height="50" relative="1" as="geometry">
            <mxPoint x="410" y="610" as="sourcePoint" />
            <mxPoint x="490" y="610" as="targetPoint" />
          </mxGeometry>
        </mxCell>
        <mxCell id="1J1XUhBUW75m6BLBYexf-25" value="Imax" style="text;html=1;align=center;verticalAlign=middle;resizable=0;points=[];autosize=1;strokeColor=none;fillColor=none;fontStyle=1;fontSize=13;" vertex="1" parent="1">
          <mxGeometry x="495" y="538" width="50" height="30" as="geometry" />
        </mxCell>
        <mxCell id="1J1XUhBUW75m6BLBYexf-26" value="Imin" style="text;html=1;align=center;verticalAlign=middle;resizable=0;points=[];autosize=1;strokeColor=none;fillColor=none;fontStyle=1;fontSize=13;" vertex="1" parent="1">
          <mxGeometry x="495" y="568" width="50" height="30" as="geometry" />
        </mxCell>
        <mxCell id="1J1XUhBUW75m6BLBYexf-27" value="Compliance Current" style="text;html=1;align=center;verticalAlign=middle;resizable=0;points=[];autosize=1;strokeColor=none;fillColor=none;fontStyle=1;fontSize=13;" vertex="1" parent="1">
          <mxGeometry x="495" y="598" width="140" height="30" as="geometry" />
        </mxCell>
        <mxCell id="1J1XUhBUW75m6BLBYexf-28" value="" style="endArrow=classic;html=1;rounded=0;" edge="1" parent="1">
          <mxGeometry width="50" height="50" relative="1" as="geometry">
            <mxPoint x="410" y="640" as="sourcePoint" />
            <mxPoint x="490" y="640" as="targetPoint" />
          </mxGeometry>
        </mxCell>
        <mxCell id="1J1XUhBUW75m6BLBYexf-29" value="Cell Area" style="text;html=1;align=center;verticalAlign=middle;resizable=0;points=[];autosize=1;strokeColor=none;fillColor=none;fontStyle=1;fontSize=13;" vertex="1" parent="1">
          <mxGeometry x="495" y="628" width="80" height="30" as="geometry" />
        </mxCell>
        <mxCell id="1J1XUhBUW75m6BLBYexf-32" value="Neural Network" style="rounded=0;whiteSpace=wrap;html=1;" vertex="1" parent="1">
          <mxGeometry x="290" y="470" width="120" height="180" as="geometry" />
        </mxCell>
      </root>
    </mxGraphModel>
  </diagram>
</mxfile>
